@startuml
class Figure{
 - drones
 - description
 - version
 - exclusive
 - exclusivePeriod
}

class DSLCode{
}

class Sequence{
}

class Library{
}

class Organization {
    name
    vatNumber
    website
    phoneNumber
    email
}

class Client{
    - vatNumber
    - name
    - address
    - status
    - representatives
}

enum ClientStatus{
    Created
    Regular
    VIP
    Infringement
    Deleted
}

class Representative {
  - email: String
  - name: String
  - position: String
}

class ShowProposal{
}

class Show{
    - figures
    - showCode
}

class Simulation{
}

class User{
    - email
    - name
    - phoneNumber
    - password
    - role
}

class Admin{
}

class  CRMManager{
}

class CRMCollaborator{
}

class ShowDesigner{
}

class DroneTech{
}

class ShowRequest{
    - client
    - place
    - time
    - numOfDrones
    - duration
    - description
    - attachment
    - showRequestStatus
}

class ShowRequestStatus {
  - Submitted
  - UnderReview
  - Approved
  - Rejected
  - Scheduled
}

class Inventory{
}

class DroneModel{
 - name
 - specifications
}

class Drone{
}

class SimulationReport {
  - simulationId
  - passed
  - totalCollisions
}

class SimulationReport {
  - simulationId
  - passed
  - totalCollisions
}

class Collision {
  - time
  - position
  - dronesInvolved
}

class SimulationStatus {
  - pending
  - running
  - success
  - collisionDetected
}

class DroneCode{
}

class DroneStatus{
 - available
 - maintenance
 - disabled
}

class MaintenanceHistory{
}


/' Relationships '/

' System & User '
Admin         "1"  -  "*"  User  : manages >

' Client Management '
CRMManager    "1"  -- "*"  Client : manages >
Client        "*"  -- "1"  ClientStatus : has >
Client        "*"  -- "1"  CRMCollaborator : contacts >
Client        "*"  -- "1"  ShowProposal : receives >
Client        "*"  -- "1"  Representative : has >

' Show Requests '
CRMManager    "1"  -- "*"  ShowRequest : assigns >
ShowRequest   "1"  --- "1"  ShowRequestStatus : has >
CRMCollaborator "1" --- "1"  ShowRequest : manages >
CRMCollaborator "1" --- "1"  Client : manages >

' Show Proposal '
CRMCollaborator "1" --- "1"  ShowProposal : generates >

' Show Design '
ShowDesigner   "1" --- "*"  Figure : creates >
ShowDesigner   "1" --- "*"  ShowRequest : designs >

' Show Scheduling '
CRMCollaborator "1" --- "*"  Show : schedules >

' Drone Tech Operations '
DroneTech      "1" --- "*"  Inventory : manages >
DroneTech      "1" --- "*"  ShowCode : generates >
DroneTech      "1" --- "*"  ShowCode : tests >
DroneTech      "1" --- "*"  Simulation : generates >
DroneTech      "1" --- "1..*"  Drone : manages >
DroneTech      "1" --- "*"  FigureCode : generates >


' Figure Relationships '
Figure         "1" --- "1"  FigureCode : has >
Figure         "1" --- "1"  DynamicFigure : is >
Figure         "1" --- "1"  StaticFigure : is >

DSLCode "1" -- "1" FigureCode : uses <
DSLCode "1" -- "1" ShowCode : uses <

DroneCode "1" -- "1" DSLCode : generates

Library "1" -- "*" Figure: has >
Library "1" -- "*" Sequence: has >

' Show Relationships '
Show "1" --- "*"  Figure : has >
Show "1" --- "*"  Drone : has >
Show "1" -- "1" ShowCode: has >


Organization "1" -- "1..*" User : has >
Organization "1" -- "1..*" Client : has >

User "1" -- "1..*" CRMManager : is >
User "1" -- "1..*" ShowDesigner : is >
User "1" -- "1..*" CRMCollaborator : is >
User "1" -- "1..*" DroneTech : is >

Sequence "1" -- "*" Figure: has >

Simulation "1" --- "1" ShowCode : tests >

Drone      "1" --- "*"  MaintenanceHistory : has >
Drone      "1" --- "1"  DroneModel : has >
Drone      "1" --- "1"  DroneCode : has >
Drone      "1" --- "1"  DroneStatus : has >


Inventory "1" -- "1..*" Drone : has >

Simulation "1" --- "1" SimulationReport : generates >
Simulation "1" --- "1" SimulationStatus : has >

SimulationReport "1" --- "*" Collision : contains >




@enduml
